<svg version="1.1" id="Layer_1" xmlns="http://www.w3.org/2000/svg" xmlns:xlink="http://www.w3.org/1999/xlink" x="0px" y="0px"
	 width="100%" viewBox="0 0 1149 1186" enable-background="new 0 0 1149 1186" xml:space="preserve">
<path fill="#FFFFFF" opacity="1.000000" stroke="none" 
	d="
M1.000000,422.000000 
	C1.000000,281.333344 1.000000,141.166672 1.000000,1.000000 
	C384.000000,1.000000 767.000000,1.000000 1150.000000,1.000000 
	C1150.000000,396.333344 1150.000000,791.666687 1150.000000,1187.000000 
	C767.000000,1187.000000 384.000000,1187.000000 1.000000,1187.000000 
	C1.000000,932.166687 1.000000,677.333313 1.000000,422.000000 
M498.263580,131.816544 
	C460.219147,142.801605 423.803650,157.724365 389.187805,176.984940 
	C336.637451,206.224442 291.059845,243.866974 252.648636,290.177734 
	C213.046707,337.924103 184.970886,392.061859 164.173737,450.163727 
	C148.956818,492.675781 139.049286,536.451599 137.044586,581.624573 
	C135.953918,606.201172 136.962509,630.875977 137.267899,655.503540 
	C137.310059,658.903442 137.829712,661.711304 134.838776,664.460022 
	C109.663284,687.596558 86.196419,712.413757 64.261314,738.608276 
	C54.470657,750.300110 45.355629,762.527649 39.891518,777.269592 
	C29.999044,803.958923 20.246086,830.621704 15.088858,858.741760 
	C12.971979,870.284180 11.364056,881.915710 14.012921,893.415955 
	C17.706804,909.453247 26.019285,921.290955 43.415958,925.775635 
	C61.320694,930.391357 79.274918,929.529663 96.941391,927.074829 
	C110.071526,925.250305 123.154480,920.781799 135.391006,915.486389 
	C147.351959,910.310364 158.292267,902.724792 169.537384,895.958862 
	C182.616379,888.089722 195.539764,879.961975 208.494766,871.968628 
	C214.759903,879.166809 214.847870,879.209290 210.950821,887.279602 
	C195.999680,918.241943 184.227005,950.394165 175.475403,983.610840 
	C171.419312,999.005737 166.097229,1014.275269 166.134232,1030.442627 
	C166.184113,1052.236572 166.448502,1074.040405 167.210800,1095.819458 
	C167.962311,1117.290161 175.366852,1136.786987 186.712524,1154.849243 
	C188.105530,1157.066895 189.764465,1159.461304 191.907227,1160.807251 
	C204.279434,1168.578735 217.528992,1172.443115 231.733307,1166.563354 
	C240.443130,1162.957886 249.082260,1158.862793 257.061462,1153.879761 
	C272.147430,1144.458740 287.222931,1134.879883 301.350037,1124.116211 
	C310.102051,1117.447876 317.183868,1108.557251 324.867188,1100.522583 
	C342.805939,1081.763306 363.516541,1065.686279 379.050446,1044.609375 
	C381.199707,1041.693115 383.178528,1042.989502 385.477966,1044.184937 
	C397.290375,1050.325439 408.937805,1056.829590 421.005188,1062.425293 
	C481.567993,1090.508545 545.076050,1107.335327 611.860168,1110.719727 
	C647.884460,1112.545288 683.777100,1110.358643 719.280273,1103.756592 
	C813.545654,1086.227417 895.792297,1044.446777 966.325928,979.767517 
	C1016.146790,934.081848 1055.402710,880.454895 1083.571411,818.911194 
	C1116.271484,747.466736 1131.354736,672.523315 1128.250488,593.896667 
	C1126.626953,552.779053 1119.940308,512.566345 1108.973389,472.971771 
	C1087.908691,396.921753 1050.647339,329.939911 996.757019,272.272522 
	C956.790527,229.504898 910.655762,194.851349 858.647705,168.034302 
	C854.506531,165.898987 852.699280,162.440323 852.940796,158.486771 
	C853.207947,154.115570 852.611084,150.396637 850.477844,146.582993 
	C849.662964,145.126099 849.672729,142.262451 850.593506,140.927139 
	C859.290649,128.313507 856.759644,115.970413 843.562866,108.384094 
	C828.078125,99.482567 814.681946,88.676041 804.873901,73.162834 
	C798.917419,63.741623 791.201111,54.856628 782.570007,47.823727 
	C764.989868,33.498974 743.985352,28.150497 721.384399,29.250454 
	C709.750244,29.816675 698.125549,30.576735 686.492310,31.163029 
	C673.162109,31.834845 659.973999,33.159309 647.278992,37.733101 
	C633.397522,42.734360 623.308350,51.711349 617.252930,65.225540 
	C613.116516,74.457123 606.073486,81.269150 598.244751,87.342659 
	C597.272705,88.096779 595.823059,88.641411 594.609375,88.614815 
	C583.044617,88.361374 581.888489,86.841438 584.134094,75.686447 
	C584.416199,74.285065 584.402954,72.629944 583.906189,71.329323 
	C583.528564,70.340691 581.932434,68.896385 581.278809,69.079971 
	C576.068909,70.543434 569.748901,71.012962 566.071960,74.335518 
	C559.255371,80.495056 555.345154,89.130264 557.668457,98.675644 
	C559.186462,104.912354 562.433044,110.728317 564.509644,115.771645 
	C543.219910,120.900139 521.121216,126.223518 498.263580,131.816544 
z"/>
<path fill="#C956B7" opacity="1.000000" stroke="none" 
	d="
M498.643036,131.681717 
	C521.121216,126.223518 543.219910,120.900139 564.509644,115.771645 
	C562.433044,110.728317 559.186462,104.912354 557.668457,98.675644 
	C555.345154,89.130264 559.255371,80.495056 566.071960,74.335518 
	C569.748901,71.012962 576.068909,70.543434 581.278809,69.079971 
	C581.932434,68.896385 583.528564,70.340691 583.906189,71.329323 
	C584.402954,72.629944 584.416199,74.285065 584.134094,75.686447 
	C581.888489,86.841438 583.044617,88.361374 594.609375,88.614815 
	C595.823059,88.641411 597.272705,88.096779 598.244751,87.342659 
	C606.073486,81.269150 613.116516,74.457123 617.252930,65.225540 
	C623.308350,51.711349 633.397522,42.734360 647.278992,37.733101 
	C659.973999,33.159309 673.162109,31.834845 686.492310,31.163029 
	C698.125549,30.576735 709.750244,29.816675 721.384399,29.250454 
	C743.985352,28.150497 764.989868,33.498974 782.570007,47.823727 
	C791.201111,54.856628 798.917419,63.741623 804.873901,73.162834 
	C814.681946,88.676041 828.078125,99.482567 843.562866,108.384094 
	C856.759644,115.970413 859.290649,128.313507 850.593506,140.927139 
	C849.672729,142.262451 849.662964,145.126099 850.477844,146.582993 
	C852.611084,150.396637 853.207947,154.115570 852.940796,158.486771 
	C852.699280,162.440323 854.506531,165.898987 858.647705,168.034302 
	C910.655762,194.851349 956.790527,229.504898 996.757019,272.272522 
	C1050.647339,329.939911 1087.908691,396.921753 1108.973389,472.971771 
	C1119.940308,512.566345 1126.626953,552.779053 1128.250488,593.896667 
	C1131.354736,672.523315 1116.271484,747.466736 1083.571411,818.911194 
	C1055.402710,880.454895 1016.146790,934.081848 966.325928,979.767517 
	C895.792297,1044.446777 813.545654,1086.227417 719.280273,1103.756592 
	C683.777100,1110.358643 647.884460,1112.545288 611.860168,1110.719727 
	C545.076050,1107.335327 481.567993,1090.508545 421.005188,1062.425293 
	C408.937805,1056.829590 397.290375,1050.325439 385.477966,1044.184937 
	C383.178528,1042.989502 381.199707,1041.693115 379.050446,1044.609375 
	C363.516541,1065.686279 342.805939,1081.763306 324.867188,1100.522583 
	C317.183868,1108.557251 310.102051,1117.447876 301.350037,1124.116211 
	C287.222931,1134.879883 272.147430,1144.458740 257.061462,1153.879761 
	C249.082260,1158.862793 240.443130,1162.957886 231.733307,1166.563354 
	C217.528992,1172.443115 204.279434,1168.578735 191.907227,1160.807251 
	C189.764465,1159.461304 188.105530,1157.066895 186.712524,1154.849243 
	C175.366852,1136.786987 167.962311,1117.290161 167.210800,1095.819458 
	C166.448502,1074.040405 166.184113,1052.236572 166.134232,1030.442627 
	C166.097229,1014.275269 171.419312,999.005737 175.475403,983.610840 
	C184.227005,950.394165 195.999680,918.241943 210.950821,887.279602 
	C214.847870,879.209290 214.759903,879.166809 208.494766,871.968628 
	C195.539764,879.961975 182.616379,888.089722 169.537384,895.958862 
	C158.292267,902.724792 147.351959,910.310364 135.391006,915.486389 
	C123.154480,920.781799 110.071526,925.250305 96.941391,927.074829 
	C79.274918,929.529663 61.320694,930.391357 43.415958,925.775635 
	C26.019285,921.290955 17.706804,909.453247 14.012921,893.415955 
	C11.364056,881.915710 12.971979,870.284180 15.088858,858.741760 
	C20.246086,830.621704 29.999044,803.958923 39.891518,777.269592 
	C45.355629,762.527649 54.470657,750.300110 64.261314,738.608276 
	C86.196419,712.413757 109.663284,687.596558 134.838776,664.460022 
	C137.829712,661.711304 137.310059,658.903442 137.267899,655.503540 
	C136.962509,630.875977 135.953918,606.201172 137.044586,581.624573 
	C139.049286,536.451599 148.956818,492.675781 164.173737,450.163727 
	C184.970886,392.061859 213.046707,337.924103 252.648636,290.177734 
	C291.059845,243.866974 336.637451,206.224442 389.187805,176.984940 
	C423.803650,157.724365 460.219147,142.801605 498.643036,131.681717 
M478.333252,247.236557 
	C444.814056,296.098846 430.155212,349.947845 434.924164,409.832764 
	C436.193878,408.960419 436.741791,408.655914 437.205963,408.254517 
	C447.649750,399.224030 457.879089,389.932098 468.560303,381.192200 
	C497.125549,357.818848 527.580994,336.680145 553.745850,310.504242 
	C559.333008,304.914734 562.395386,296.605652 565.879822,289.200745 
	C567.405518,285.958466 565.520691,282.654358 561.705994,281.328522 
	C557.968811,280.029633 555.667297,281.852661 554.047913,285.017914 
	C553.289551,286.500183 552.656616,288.061676 551.763489,289.457153 
	C549.208862,293.448578 545.377075,295.382996 541.096375,293.302338 
	C537.705078,291.653961 534.233276,289.082947 532.180603,286.000397 
	C528.169250,279.976654 526.242554,273.067963 526.838806,265.599091 
	C526.963013,264.044067 526.208496,261.193359 525.396179,261.011963 
	C522.628174,260.393799 519.058411,259.691193 516.928650,260.945831 
	C514.887817,262.148010 513.278320,265.720123 513.202759,268.301117 
	C513.007812,274.963959 518.382751,280.950623 525.206299,283.077362 
	C526.169067,283.377441 527.665283,284.290161 527.652649,284.892883 
	C527.629211,286.011871 526.931702,287.755402 526.061584,288.102509 
	C523.017151,289.316956 519.776184,290.835785 516.615662,290.822815 
	C503.603027,290.769318 493.481964,284.796173 485.689148,274.541229 
	C479.447784,266.327911 478.486328,256.892334 479.520996,246.847061 
	C479.566467,246.455185 479.611969,246.063309 479.657471,245.671432 
	C479.546143,245.653030 479.434845,245.634628 479.323547,245.616226 
	C479.198761,246.060944 479.073975,246.505661 478.333252,247.236557 
M991.056763,450.580963 
	C991.308228,450.524902 991.559692,450.468842 991.811157,450.412811 
	C991.633179,450.183594 991.455200,449.954376 991.133606,449.033875 
	C989.517883,446.124207 987.763672,443.281799 986.312134,440.292419 
	C981.732666,430.860992 974.972717,425.186218 963.801636,426.668213 
	C962.841675,426.795563 961.825928,426.445953 960.832031,426.384979 
	C957.176819,426.160736 955.319275,424.624939 954.815796,420.605347 
	C953.901794,413.308563 949.301941,409.742340 942.033813,410.213196 
	C938.570068,410.437592 934.796875,410.563904 931.770081,412.006500 
	C921.257202,417.016998 909.997131,415.805328 898.995544,417.016052 
	C893.731018,417.595398 888.142090,419.117737 883.622620,421.779419 
	C873.748779,427.594421 864.427856,434.356964 854.951599,440.835632 
	C847.257812,446.095642 840.052795,452.203613 831.941956,456.689911 
	C819.095032,463.795898 807.978577,472.941132 797.635742,483.116241 
	C795.346313,485.368530 793.876709,488.767456 792.828247,491.905304 
	C790.303589,499.460663 788.603516,507.299377 785.931641,514.795959 
	C781.299622,527.791809 775.716858,540.462524 771.434448,553.564392 
	C768.541077,562.416504 764.299500,571.240662 766.587158,581.199585 
	C766.958374,582.815796 765.335022,584.890137 764.633606,586.752747 
	C764.156067,586.676758 763.678589,586.600769 763.201111,586.524841 
	C762.894287,585.173767 762.123779,583.736389 762.356750,582.485840 
	C763.750977,575.000916 764.881165,567.413696 767.017090,560.129822 
	C773.374084,538.451050 780.467529,516.985962 786.684326,495.268890 
	C792.710815,474.216339 792.468201,452.507263 792.016418,430.841400 
	C791.751953,418.162292 795.022156,406.324554 799.403320,394.450500 
	C805.962219,376.673676 811.090454,358.423859 811.189331,339.157745 
	C811.247131,327.892487 806.577454,318.678986 798.659058,311.319977 
	C792.791138,305.866547 784.750488,302.321045 777.177979,304.747101 
	C768.673462,307.471649 760.292419,312.109894 753.333069,317.739532 
	C744.764099,324.671356 736.879272,332.847748 730.197083,341.626617 
	C717.911621,357.766785 706.790588,374.663147 698.767944,393.593140 
	C679.162292,439.853607 660.032104,486.326721 637.206543,531.176514 
	C623.624756,557.863342 610.906860,585.008301 598.460571,612.248840 
	C588.103333,634.917175 579.119995,658.215027 568.682373,680.843994 
	C564.586182,689.724548 562.981323,698.154053 563.706238,707.903442 
	C565.160522,727.461304 575.665405,741.085327 591.404541,750.359619 
	C602.718140,757.026062 615.698608,760.849304 627.888611,766.050720 
	C632.120117,767.856323 636.403259,769.675110 640.319092,772.053711 
	C645.699158,775.321960 650.465393,779.668579 655.997070,782.607361 
	C676.252441,793.367981 697.826843,796.036255 720.336243,792.112976 
	C754.743469,786.115723 783.087219,770.903442 798.812439,738.195618 
	C814.734802,705.077698 833.633850,673.844482 854.525635,643.675720 
	C867.143433,625.455017 878.713745,606.467651 884.413269,584.720154 
	C888.032959,570.908630 890.532166,556.804016 894.127502,542.985291 
	C897.770203,528.984436 901.505493,514.875244 911.676697,503.754395 
	C912.834900,502.488098 914.481934,501.668945 915.902344,500.642456 
	C916.442322,501.079376 916.982361,501.516266 917.522339,501.953186 
	C916.653870,503.824158 915.958191,505.801453 914.885132,507.546661 
	C911.341736,513.309448 906.723755,518.614868 904.264954,524.791260 
	C900.969055,533.070618 898.552551,541.872192 897.068359,550.670532 
	C890.811951,587.759766 876.640686,621.364075 854.789551,651.959778 
	C839.593933,673.236450 825.057495,694.996643 813.614014,718.611633 
	C803.740601,738.986511 794.070984,759.367920 777.678345,775.747742 
	C771.582886,781.838501 773.761902,789.353821 780.811584,794.641174 
	C788.115112,800.118774 795.408936,805.794373 801.754211,812.311157 
	C807.764709,818.484192 814.430176,822.430359 822.526123,825.312134 
	C830.026184,827.981812 837.524475,831.935608 843.601624,837.022583 
	C852.629639,844.579529 860.370667,853.667480 868.725586,862.037720 
	C874.103638,867.425598 880.808289,869.882385 888.229004,871.199097 
	C892.549988,871.965698 896.647461,873.977051 900.856506,875.395752 
	C903.485840,876.281982 906.106384,877.615112 908.787231,877.769714 
	C910.389709,877.862122 912.884216,876.425781 913.533936,875.012756 
	C914.133240,873.709351 913.168518,871.302856 912.251465,869.764526 
	C910.214478,866.347839 907.495483,863.324951 905.583679,859.850281 
	C903.846008,856.692200 904.484070,854.009521 908.735168,853.387329 
	C910.261414,853.163940 911.763367,852.775146 914.354492,852.238586 
	C910.101501,847.414185 906.651978,843.408142 903.103027,839.492310 
	C891.152710,826.306396 878.615417,813.592957 870.801147,797.224792 
	C866.439331,788.088379 862.509033,778.633850 857.092285,770.147278 
	C852.433594,762.848389 852.168823,756.322937 856.109863,749.163025 
	C860.113708,741.888855 864.408569,734.771545 868.295898,727.437134 
	C884.819092,696.261658 901.348267,665.088379 917.662598,633.803406 
	C931.994263,606.320312 945.428955,578.348572 952.351990,547.964355 
	C956.546875,529.553528 959.354919,510.778534 961.822083,492.040222 
	C963.324402,480.629761 962.265198,469.076996 957.471069,458.241089 
	C954.826477,452.263672 953.575867,451.496002 948.187744,454.848816 
	C938.683411,460.763031 929.562988,460.672363 920.026306,455.013672 
	C913.025085,450.859375 906.269714,452.269928 900.112732,457.233917 
	C892.601624,463.289551 885.009644,469.251648 877.662781,475.501251 
	C874.002808,478.614532 870.061951,481.802490 867.537964,485.776001 
	C856.753967,502.753052 846.172729,519.873596 836.051025,537.252563 
	C826.085876,554.362732 816.708374,571.817017 807.175781,589.176758 
	C796.706482,608.242493 779.627747,621.042969 763.840820,635.054688 
	C759.867432,638.581299 755.571594,641.789062 751.187744,644.799377 
	C742.006775,651.103821 731.186829,648.490356 726.341309,638.428833 
	C723.182007,631.868835 721.726013,624.451721 718.305847,618.061584 
	C710.385925,603.264038 704.673279,587.826050 701.308472,571.379517 
	C698.213135,556.250488 698.139221,541.411011 702.544250,526.501831 
	C705.361328,516.966919 708.119141,507.337036 709.798279,497.559937 
	C713.143005,478.084015 715.451721,458.431335 718.720276,438.940826 
	C720.882935,426.045074 725.702148,413.460571 723.041565,400.102051 
	C722.140503,395.577698 720.163147,391.276550 719.028320,386.784790 
	C718.668152,385.359039 719.443237,383.646423 719.698792,382.065094 
	C721.431396,382.651093 723.905701,382.726654 724.736267,383.933441 
	C726.281555,386.178864 727.737000,389.093933 727.704834,391.711487 
	C727.568237,402.823761 727.752930,414.056549 726.170105,425.006744 
	C723.892883,440.760345 718.729980,456.189362 717.455444,471.971466 
	C715.927063,490.896545 712.697571,509.129364 706.412415,526.996765 
	C699.059692,547.898682 702.505188,568.511597 710.315552,588.374023 
	C715.592957,601.794922 722.427673,614.612488 728.774719,627.597900 
	C730.508057,631.144226 732.820740,634.451538 735.180420,637.636719 
	C738.355347,641.922363 742.479431,642.703674 746.905701,639.594910 
	C753.704529,634.819824 760.578857,630.117249 767.062988,624.935730 
	C784.900696,610.681519 800.222656,594.360962 811.117981,573.899048 
	C823.857483,549.973450 838.582764,527.069519 850.617737,502.814819 
	C862.117371,479.638794 881.605652,464.953857 900.910217,449.721649 
	C906.869141,445.019806 913.985718,444.158905 920.585876,448.273285 
	C929.640076,453.917511 938.089661,453.862976 947.259399,448.434967 
	C953.807678,444.558746 959.155823,446.418304 961.606934,453.628723 
	C965.010315,463.640472 967.265503,474.042511 970.013000,484.277222 
	C970.618225,486.531891 971.226562,488.785736 971.833374,491.040009 
	C972.539368,491.039001 973.245361,491.037994 973.951355,491.036987 
	C974.512024,488.149475 975.486755,485.269745 975.541321,482.372650 
	C975.635193,477.396606 974.592529,472.358887 975.037537,467.438446 
	C975.855225,458.396698 976.209412,450.127533 967.478333,443.896393 
	C963.771423,441.250854 965.680786,436.619751 970.296631,435.356903 
	C975.304260,433.986908 978.794067,435.794861 981.765808,440.058044 
	C984.337463,443.747192 987.769897,446.836243 991.056763,450.580963 
M882.920105,1018.117371 
	C885.086853,1016.886108 887.299866,1015.729065 889.413330,1014.412231 
	C911.493225,1000.654175 932.221863,985.105591 951.810974,967.970825 
	C977.335144,945.644653 1000.613098,921.293518 1020.208435,893.553894 
	C1050.291138,850.968262 1072.806885,804.685059 1087.968628,754.792786 
	C1101.513794,710.220337 1108.600708,664.628479 1108.810913,618.093018 
	C1108.890381,600.523376 1107.943359,582.834412 1105.824951,565.398987 
	C1103.234497,544.077209 1099.913940,522.738586 1095.146118,501.808838 
	C1085.200073,458.147369 1068.588501,416.925385 1046.551758,377.908752 
	C1021.490356,333.536987 990.501404,293.889282 953.034546,259.263397 
	C928.754456,236.824295 902.536499,217.043381 874.304260,199.900208 
	C869.233948,196.821396 863.966919,194.066498 858.242676,190.854568 
	C858.141113,192.596664 858.044983,193.527618 858.038879,194.459183 
	C857.971313,204.687927 852.683716,211.628616 842.799805,214.500732 
	C840.898254,215.053284 838.930115,215.526794 837.171692,216.398071 
	C825.234558,222.312866 813.357422,228.348602 801.437988,234.299500 
	C781.624084,244.191757 767.865234,258.948090 763.293091,281.252960 
	C762.692932,284.180969 763.245483,285.554474 766.335571,286.108002 
	C772.702515,287.248444 779.175293,288.182739 785.307922,290.134064 
	C791.037048,291.956970 797.359436,293.873108 801.711914,297.694489 
	C814.382080,308.818542 820.710388,323.645020 819.679504,340.360809 
	C818.775330,355.022919 815.925049,369.599915 813.340088,384.108643 
	C812.065247,391.264282 809.574402,398.219910 807.410583,405.196838 
	C803.718811,417.100067 799.834229,428.826202 801.787048,441.731842 
	C802.756714,448.139954 801.955566,454.816010 801.955566,461.370850 
	C802.471619,461.765198 802.987610,462.159546 803.503662,462.553925 
	C818.403076,451.488373 833.407288,440.560272 848.165894,429.309998 
	C858.349792,421.547028 868.060120,413.305145 880.582275,409.139099 
	C899.862427,402.724762 919.729858,401.658478 939.698242,402.179077 
	C951.587036,402.489044 962.823914,406.328583 973.420349,411.924652 
	C986.228149,418.688538 993.424011,430.273315 999.095276,442.708160 
	C1001.449463,447.870056 1001.785950,454.275909 1001.755676,460.109436 
	C1001.726135,465.800842 996.503235,468.179932 991.298401,465.691925 
	C989.712708,464.933929 988.215271,463.991516 986.981079,463.303009 
	C985.643066,471.331970 984.553772,479.152618 982.995300,486.878662 
	C981.246948,495.546539 980.834229,505.005096 971.271667,509.802032 
	C970.489380,510.194489 970.170410,511.809296 969.923950,512.920044 
	C968.740051,518.254395 967.567993,523.594177 966.550415,528.962097 
	C962.568298,549.967407 955.570557,570.073669 947.455627,589.725525 
	C938.193848,612.154541 928.214355,634.298523 918.068726,656.346436 
	C912.997192,667.367493 906.843628,677.889648 901.211182,688.653992 
	C891.501221,707.210999 881.713867,725.728821 872.192200,744.382202 
	C869.819763,749.029968 866.640564,754.212158 866.865723,759.006287 
	C867.164734,765.374512 869.670410,771.988342 872.591553,777.812683 
	C878.954285,790.499695 886.881836,802.220947 897.839111,811.577148 
	C898.844360,812.435486 900.318115,813.394592 900.488770,814.477966 
	C901.828857,822.984131 908.450500,827.634949 913.794800,833.217590 
	C919.464355,839.139954 922.553528,845.951782 922.201843,854.372253 
	C922.069092,857.551392 923.308472,860.777344 923.831238,863.996826 
	C924.518860,868.231079 925.701660,872.490479 925.625977,876.720276 
	C925.486816,884.492310 924.551636,892.248535 924.007385,900.015442 
	C923.335144,909.609863 923.148254,919.259521 922.002747,928.795349 
	C918.938477,954.303589 909.825195,977.659241 895.604919,998.994385 
	C891.292725,1005.464172 886.435120,1011.570374 881.476196,1018.065430 
	C881.514893,1018.285522 881.553650,1018.505554 881.592285,1018.725586 
	C881.802307,1018.562256 882.012329,1018.398987 882.920105,1018.117371 
M282.529297,768.036682 
	C259.761810,805.305969 241.019165,844.644653 223.784607,884.661865 
	C199.802261,940.346924 181.553635,997.760742 175.604324,1058.487671 
	C172.949509,1085.586426 178.266113,1111.219971 191.403183,1135.046997 
	C194.495544,1140.655762 198.821777,1145.652954 203.005554,1150.569824 
	C206.394012,1154.552002 211.108490,1156.135254 216.422974,1156.094604 
	C228.298737,1156.003540 238.271774,1150.757690 247.833694,1144.553589 
	C274.465790,1127.273438 298.738007,1106.870483 321.826172,1085.299438 
	C346.474487,1062.270996 371.167877,1039.134399 389.331818,1010.000977 
	C402.609161,988.705139 418.749786,969.150208 431.446442,947.545410 
	C462.974335,893.897217 491.531128,838.618774 517.646179,782.112671 
	C537.376892,739.420471 557.720947,696.989990 576.404419,653.842102 
	C593.065979,615.363892 609.840210,576.984253 628.189270,539.267883 
	C644.345581,506.058838 659.497375,472.361145 675.092529,438.879120 
	C688.362244,410.389679 701.397400,381.787781 714.990173,353.453339 
	C722.964844,336.830078 735.532532,323.564148 749.193909,311.521973 
	C754.419922,306.915344 761.080566,303.936279 767.683044,299.846680 
	C757.617737,295.748596 747.796082,291.729828 737.957581,287.752960 
	C733.516296,285.957764 732.140076,283.541138 734.932129,279.819855 
	C738.446289,275.136322 742.785156,271.003204 747.125183,267.021759 
	C756.777039,258.167389 767.852234,250.537567 776.042053,240.523346 
	C782.225586,232.962326 788.717407,227.176590 797.450745,223.481003 
	C813.193237,216.819412 829.517578,211.463974 843.472595,200.986404 
	C849.040283,196.806107 850.101013,195.755219 848.382446,188.711533 
	C847.401550,184.690796 846.141235,180.641617 845.913269,176.554672 
	C845.486694,168.908264 845.761108,168.892960 838.268250,167.122787 
	C839.651001,164.045563 840.949951,161.083206 842.309692,158.149033 
	C843.710083,155.126907 844.112915,152.670303 841.523376,149.576645 
	C836.915039,144.070908 837.462036,138.488235 842.071472,133.373688 
	C846.089905,128.914917 845.934326,124.732811 841.308228,121.048157 
	C838.189819,118.564384 834.836304,116.362701 831.501404,114.166321 
	C820.424316,106.871056 810.592896,98.497932 803.239624,87.105217 
	C795.663147,75.366608 787.218689,64.120811 775.402466,56.062172 
	C770.734436,52.878613 766.111328,49.604942 761.259155,46.723640 
	C757.490845,44.485996 753.570435,42.229534 749.418091,40.966015 
	C737.560608,37.357925 725.672607,40.790119 713.775574,41.374027 
	C702.996338,41.903076 691.931335,43.116318 681.428040,41.384842 
	C660.570068,37.946400 638.257935,47.872791 628.856995,66.558556 
	C622.594788,79.005730 612.595459,87.992706 601.022644,95.247688 
	C594.584229,99.283936 587.774841,99.294807 581.299255,94.790482 
	C574.892761,90.334274 573.087769,84.241531 574.864075,76.845093 
	C574.969116,76.407997 574.792908,75.903374 574.720764,75.150391 
	C570.264038,75.441307 567.194885,77.831635 566.342957,81.738052 
	C563.106018,96.580727 566.698181,111.356537 586.151855,113.122940 
	C590.674011,113.533546 595.265259,113.183594 600.867004,113.183594 
	C599.865234,115.993660 599.492371,118.126442 598.433289,119.833527 
	C591.799866,130.525787 580.607605,134.311584 567.558655,129.649506 
	C558.999146,126.591393 551.517883,127.933868 544.570984,133.197617 
	C537.487183,138.565063 532.641907,145.721085 529.615662,154.013382 
	C527.293579,160.376007 528.885803,165.747299 533.666992,168.926788 
	C536.344238,161.884781 540.600952,156.294861 548.283752,154.504395 
	C549.893738,154.129181 551.844177,155.214355 553.637695,155.626572 
	C553.098328,157.497406 553.135620,160.002319 551.909180,161.117599 
	C548.525208,164.194885 547.362732,167.646408 548.760742,171.833084 
	C550.175415,176.069275 552.316467,180.089081 553.454102,184.385132 
	C554.963135,190.083435 556.762146,195.963715 556.726013,201.755127 
	C556.663025,211.847366 549.631104,218.138260 539.631165,217.903595 
	C532.837097,217.744171 526.021545,217.139755 519.285400,216.222046 
	C511.104828,215.107544 503.841644,216.318909 498.875885,223.455750 
	C489.501587,236.928497 483.259155,251.070099 491.222839,267.619110 
	C491.868774,268.961304 492.279694,270.418060 492.780701,271.828339 
	C496.599823,282.578888 505.893860,287.686646 516.994690,285.478088 
	C514.160339,282.388550 510.732574,279.378998 508.270569,275.719696 
	C506.554047,273.168457 505.141266,269.645721 505.374847,266.698120 
	C505.991821,258.911987 513.114929,251.772308 520.840576,250.360291 
	C525.891968,249.437057 531.201660,250.484528 533.923340,254.560776 
	C535.449402,256.846375 533.672974,261.343140 533.358337,264.841278 
	C533.329956,265.156738 533.104187,265.452942 532.978455,265.761444 
	C530.234131,272.495178 533.896240,281.179443 540.579834,284.124542 
	C544.279236,285.754669 547.139709,284.933533 549.066833,281.498779 
	C550.525391,278.899231 551.502808,276.032379 552.920654,273.406738 
	C555.301758,268.997223 558.357727,268.035950 562.926880,270.016724 
	C569.401062,272.823334 573.622375,281.396545 571.328064,289.483307 
	C569.401123,296.275452 566.634094,302.983490 563.211365,309.159271 
	C558.605469,317.469910 558.611694,325.371979 563.228882,333.311859 
	C569.399841,343.923492 579.338745,348.333313 591.118835,348.888824 
	C594.030396,349.026154 597.012146,347.672791 601.070435,346.753510 
	C599.034607,345.293457 598.045532,344.734619 597.239197,343.980408 
	C593.235596,340.235382 588.797852,336.824860 585.403687,332.583771 
	C577.234985,322.376953 582.152588,303.762177 593.712402,302.294250 
	C602.338318,301.198914 605.592163,296.212341 606.908325,289.189575 
	C607.967407,283.538727 607.751953,277.643158 608.024780,271.852509 
	C608.286194,266.303741 611.516174,264.197266 615.733948,267.681396 
	C618.839111,270.246429 621.634094,274.137482 622.749512,277.967163 
	C625.237732,286.509766 622.118286,294.667145 619.055969,302.645905 
	C615.599121,311.653076 617.388123,319.003845 624.475403,325.056946 
	C629.156494,329.054932 634.705444,330.915161 640.713928,330.005676 
	C647.089355,329.040649 651.190369,331.777008 654.665894,336.586914 
	C656.611511,339.279572 658.804749,341.807770 661.030090,344.280762 
	C666.080872,349.893890 670.182739,351.056061 676.944336,347.784576 
	C681.514832,345.573212 686.206909,342.941467 689.722595,339.387787 
	C694.356995,334.703217 692.640015,330.579132 686.694885,327.956390 
	C681.253967,325.556091 675.713135,322.985535 670.970337,319.472137 
	C655.302856,307.866089 657.478088,291.209778 675.247986,283.676910 
	C677.096802,282.893158 678.521851,281.109985 680.143494,279.790527 
	C678.744080,278.313019 677.562622,276.503113 675.906433,275.417236 
	C669.716248,271.358704 667.668945,265.278625 670.912903,259.682098 
	C673.498352,255.221603 677.949341,254.787994 682.441528,253.873932 
	C685.003479,253.352646 688.886597,251.573380 689.303833,249.715790 
	C690.557312,244.134079 690.367004,238.233154 690.807739,232.461945 
	C691.064941,229.094345 691.272583,225.705933 691.842041,222.385101 
	C692.230225,220.121613 693.413086,218.000793 693.869995,215.741241 
	C694.553284,212.362427 693.474548,210.453613 689.940857,208.553146 
	C679.590698,202.986832 668.452148,200.653259 657.099976,199.009140 
	C637.528137,196.174637 617.905884,193.689758 598.316528,190.973587 
	C583.059631,188.858124 569.773499,182.355148 558.093689,172.449356 
	C556.808167,171.359116 555.803589,169.937653 554.046387,167.974609 
	C556.700073,167.098175 558.334961,166.219711 560.039917,166.051819 
	C568.955750,165.173737 577.879517,164.324707 586.818726,163.746277 
	C606.735474,162.457535 626.676025,161.515335 646.581421,160.079422 
	C658.999207,159.183640 671.423645,158.021088 683.746948,156.282349 
	C694.663940,154.742020 705.356384,150.542282 716.818420,154.817520 
	C716.812195,158.059891 714.678284,158.785477 711.946228,158.870056 
	C707.789673,158.998703 703.404907,158.320358 699.515991,159.409409 
	C681.210999,164.535645 662.702332,165.699341 643.730469,165.257034 
	C624.122314,164.799896 604.460205,166.270386 584.834290,167.173233 
	C577.654480,167.503540 570.511047,168.624847 563.351013,169.385315 
	C563.313354,169.894257 563.275635,170.403198 563.237976,170.912140 
	C569.058838,175.802673 575.318420,179.785034 582.793884,182.107269 
	C604.026917,188.703293 626.162170,188.361481 647.897827,191.099548 
	C661.697266,192.837875 675.559021,193.928757 688.257935,201.038788 
	C703.604980,209.631454 718.745850,203.766159 733.299194,197.907318 
	C738.710938,195.728683 738.613586,189.254684 733.877380,185.993362 
	C730.888855,183.935486 730.555359,181.832047 733.492188,178.365189 
	C735.582336,180.276550 738.050171,181.637146 739.180054,183.722580 
	C743.903748,192.440796 739.450439,203.384155 730.083008,206.395309 
	C725.027100,208.020538 719.900391,209.789459 714.675720,210.422836 
	C709.480042,211.052689 706.007080,213.808014 703.143921,217.477921 
	C698.496826,223.434448 694.809387,229.853973 694.816956,237.878433 
	C694.820557,241.667709 694.039551,245.485535 693.350647,249.242142 
	C691.645325,258.542694 689.984680,259.836304 680.821228,261.071808 
	C678.032959,261.447754 675.405334,263.014862 672.704102,264.036407 
	C672.762268,264.636414 672.820435,265.236420 672.878540,265.836426 
	C674.873291,267.241669 676.829163,268.706268 678.869690,270.041473 
	C686.260437,274.877533 685.885010,284.992096 678.072021,289.224915 
	C676.181824,290.248993 674.091675,290.899811 672.108154,291.756470 
	C663.245789,295.583923 661.259583,304.279938 668.842468,310.156311 
	C675.284180,315.148254 682.894287,318.807404 690.373596,322.206635 
	C693.770081,323.750275 695.389832,325.425323 695.777832,328.907532 
	C697.315063,342.703369 683.585754,357.203369 669.637329,356.049194 
	C667.046021,355.834808 664.168457,354.328217 662.185791,352.561829 
	C658.728943,349.482025 655.970459,345.633362 652.714478,342.307495 
	C650.658081,340.207001 648.457520,337.322083 645.919250,336.818909 
	C641.173767,335.878143 636.135376,336.375122 631.219482,336.397797 
	C630.744873,336.399994 630.245239,337.245575 629.806335,337.742950 
	C623.745972,344.610413 617.301636,351.183594 611.731323,358.428558 
	C603.110901,369.640533 595.752380,381.871002 586.666199,392.665863 
	C570.820618,411.491394 554.118774,429.599030 537.680176,447.921783 
	C520.661072,466.891602 503.075104,485.373993 486.569275,504.777527 
	C469.143677,525.262329 452.993408,546.827576 435.745972,567.469604 
	C418.455872,588.162659 400.473541,608.276733 382.840210,628.684021 
	C345.434692,671.973877 310.646393,717.153198 282.529297,768.036682 
M350.487122,495.982178 
	C340.893921,503.712891 331.442169,511.627655 321.676849,519.134460 
	C303.596680,533.033020 284.751495,545.996704 267.268280,560.598999 
	C232.123154,589.952637 197.041702,619.444519 163.167465,650.236328 
	C140.176773,671.134888 116.980179,691.949280 97.058197,716.151611 
	C71.293900,747.451538 49.252705,780.546082 38.337513,820.121033 
	C32.549271,841.107300 25.758480,861.776123 27.671778,884.180908 
	C28.538624,894.331787 32.782387,901.359253 41.395325,905.662903 
	C48.659580,909.292725 56.244495,912.483765 63.987267,914.913818 
	C84.678993,921.407776 104.362984,915.567200 123.107414,907.604309 
	C138.370438,901.120422 153.199692,893.181152 167.219864,884.305420 
	C189.422302,870.249634 210.833191,854.937317 232.445251,839.963623 
	C234.901901,838.261536 237.017868,835.588013 238.406128,832.906494 
	C244.515717,821.105103 249.639984,808.748779 256.341492,797.308289 
	C269.945404,774.084167 283.972046,751.086670 298.525970,728.446777 
	C309.579224,711.252502 321.021942,694.216370 333.537292,678.075928 
	C351.882080,654.417542 371.244293,631.542847 390.361786,608.490784 
	C400.879425,595.808472 411.680603,583.356445 422.543304,570.966614 
	C432.632355,559.459229 443.114563,548.295898 453.171875,536.761536 
	C471.665009,515.552429 489.841034,494.065979 508.407227,472.921631 
	C519.832520,459.909760 532.457947,447.896240 543.264038,434.408478 
	C561.785034,411.291107 579.286560,387.357574 597.257324,363.798126 
	C600.389404,359.692017 603.723633,355.740082 606.964478,351.716919 
	C606.762695,351.294983 606.560913,350.873047 606.359131,350.451111 
	C595.515808,356.909607 584.830139,356.880829 574.028748,350.911011 
	C563.836243,345.277649 554.970215,338.667572 552.951050,325.527252 
	C550.038940,327.648987 547.684753,329.192108 545.523682,330.969910 
	C538.064331,337.106140 530.665771,343.316284 523.255920,349.512482 
	C496.172211,372.160187 468.968140,394.666168 442.045624,417.503967 
	C411.573090,443.353149 381.354736,469.501892 350.487122,495.982178 
M617.126892,284.913269 
	C615.747070,288.290283 614.945190,292.085022 612.868469,294.958313 
	C608.379822,301.168579 603.962891,307.399902 595.015625,308.418182 
	C586.033997,309.440338 581.621521,320.809235 587.679810,327.519501 
	C592.374817,332.719757 598.563110,336.557220 603.982056,341.125580 
	C606.219849,343.012146 608.181885,345.225861 610.487305,347.506348 
	C612.832458,344.002136 615.583130,339.665527 618.570129,335.498322 
	C621.085571,331.989014 621.700378,328.935455 618.294006,325.470123 
	C616.750916,323.900299 615.946167,321.470001 615.176575,319.298828 
	C612.455505,311.622406 614.299500,304.312012 616.890320,296.945251 
	C618.555664,292.209930 619.434326,287.197998 620.665588,282.310028 
	C620.127441,282.164032 619.589233,282.018066 619.051086,281.872070 
	C618.510132,282.666107 617.969177,283.460175 617.126892,284.913269 
M547.871643,198.747940 
	C547.538025,193.053955 547.204468,187.359970 546.870850,181.665985 
	C546.249268,181.432632 545.627686,181.199295 545.006104,180.965958 
	C533.961792,189.734207 522.917480,198.502457 510.927673,208.021362 
	C517.838806,209.084763 523.160767,210.566132 528.483521,210.569183 
	C536.704041,210.573883 544.516357,208.866669 547.871643,198.747940 
z"/>
<path fill="#FFFFFF" opacity="1.000000" stroke="none" 
	d="
M282.719818,767.723511 
	C310.646393,717.153198 345.434692,671.973877 382.840210,628.684021 
	C400.473541,608.276733 418.455872,588.162659 435.745972,567.469604 
	C452.993408,546.827576 469.143677,525.262329 486.569275,504.777527 
	C503.075104,485.373993 520.661072,466.891602 537.680176,447.921783 
	C554.118774,429.599030 570.820618,411.491394 586.666199,392.665863 
	C595.752380,381.871002 603.110901,369.640533 611.731323,358.428558 
	C617.301636,351.183594 623.745972,344.610413 629.806335,337.742950 
	C630.245239,337.245575 630.744873,336.399994 631.219482,336.397797 
	C636.135376,336.375122 641.173767,335.878143 645.919250,336.818909 
	C648.457520,337.322083 650.658081,340.207001 652.714478,342.307495 
	C655.970459,345.633362 658.728943,349.482025 662.185791,352.561829 
	C664.168457,354.328217 667.046021,355.834808 669.637329,356.049194 
	C683.585754,357.203369 697.315063,342.703369 695.777832,328.907532 
	C695.389832,325.425323 693.770081,323.750275 690.373596,322.206635 
	C682.894287,318.807404 675.284180,315.148254 668.842468,310.156311 
	C661.259583,304.279938 663.245789,295.583923 672.108154,291.756470 
	C674.091675,290.899811 676.181824,290.248993 678.072021,289.224915 
	C685.885010,284.992096 686.260437,274.877533 678.869690,270.041473 
	C676.829163,268.706268 674.873291,267.241669 672.878540,265.836426 
	C672.820435,265.236420 672.762268,264.636414 672.704102,264.036407 
	C675.405334,263.014862 678.032959,261.447754 680.821228,261.071808 
	C689.984680,259.836304 691.645325,258.542694 693.350647,249.242142 
	C694.039551,245.485535 694.820557,241.667709 694.816956,237.878433 
	C694.809387,229.853973 698.496826,223.434448 703.143921,217.477921 
	C706.007080,213.808014 709.480042,211.052689 714.675720,210.422836 
	C719.900391,209.789459 725.027100,208.020538 730.083008,206.395309 
	C739.450439,203.384155 743.903748,192.440796 739.180054,183.722580 
	C738.050171,181.637146 735.582336,180.276550 733.492188,178.365189 
	C730.555359,181.832047 730.888855,183.935486 733.877380,185.993362 
	C738.613586,189.254684 738.710938,195.728683 733.299194,197.907318 
	C718.745850,203.766159 703.604980,209.631454 688.257935,201.038788 
	C675.559021,193.928757 661.697266,192.837875 647.897827,191.099548 
	C626.162170,188.361481 604.026917,188.703293 582.793884,182.107269 
	C575.318420,179.785034 569.058838,175.802673 563.237976,170.912140 
	C563.275635,170.403198 563.313354,169.894257 563.351013,169.385315 
	C570.511047,168.624847 577.654480,167.503540 584.834290,167.173233 
	C604.460205,166.270386 624.122314,164.799896 643.730469,165.257034 
	C662.702332,165.699341 681.210999,164.535645 699.515991,159.409409 
	C703.404907,158.320358 707.789673,158.998703 711.946228,158.870056 
	C714.678284,158.785477 716.812195,158.059891 716.818420,154.817520 
	C705.356384,150.542282 694.663940,154.742020 683.746948,156.282349 
	C671.423645,158.021088 658.999207,159.183640 646.581421,160.079422 
	C626.676025,161.515335 606.735474,162.457535 586.818726,163.746277 
	C577.879517,164.324707 568.955750,165.173737 560.039917,166.051819 
	C558.334961,166.219711 556.700073,167.098175 554.046387,167.974609 
	C555.803589,169.937653 556.808167,171.359116 558.093689,172.449356 
	C569.773499,182.355148 583.059631,188.858124 598.316528,190.973587 
	C617.905884,193.689758 637.528137,196.174637 657.099976,199.009140 
	C668.452148,200.653259 679.590698,202.986832 689.940857,208.553146 
	C693.474548,210.453613 694.553284,212.362427 693.869995,215.741241 
	C693.413086,218.000793 692.230225,220.121613 691.842041,222.385101 
	C691.272583,225.705933 691.064941,229.094345 690.807739,232.461945 
	C690.367004,238.233154 690.557312,244.134079 689.303833,249.715790 
	C688.886597,251.573380 685.003479,253.352646 682.441528,253.873932 
	C677.949341,254.787994 673.498352,255.221603 670.912903,259.682098 
	C667.668945,265.278625 669.716248,271.358704 675.906433,275.417236 
	C677.562622,276.503113 678.744080,278.313019 680.143494,279.790527 
	C678.521851,281.109985 677.096802,282.893158 675.247986,283.676910 
	C657.478088,291.209778 655.302856,307.866089 670.970337,319.472137 
	C675.713135,322.985535 681.253967,325.556091 686.694885,327.956390 
	C692.640015,330.579132 694.356995,334.703217 689.722595,339.387787 
	C686.206909,342.941467 681.514832,345.573212 676.944336,347.784576 
	C670.182739,351.056061 666.080872,349.893890 661.030090,344.280762 
	C658.804749,341.807770 656.611511,339.279572 654.665894,336.586914 
	C651.190369,331.777008 647.089355,329.040649 640.713928,330.005676 
	C634.705444,330.915161 629.156494,329.054932 624.475403,325.056946 
	C617.388123,319.003845 615.599121,311.653076 619.055969,302.645905 
	C622.118286,294.667145 625.237732,286.509766 622.749512,277.967163 
	C621.634094,274.137482 618.839111,270.246429 615.733948,267.681396 
	C611.516174,264.197266 608.286194,266.303741 608.024780,271.852509 
	C607.751953,277.643158 607.967407,283.538727 606.908325,289.189575 
	C605.592163,296.212341 602.338318,301.198914 593.712402,302.294250 
	C582.152588,303.762177 577.234985,322.376953 585.403687,332.583771 
	C588.797852,336.824860 593.235596,340.235382 597.239197,343.980408 
	C598.045532,344.734619 599.034607,345.293457 601.070435,346.753510 
	C597.012146,347.672791 594.030396,349.026154 591.118835,348.888824 
	C579.338745,348.333313 569.399841,343.923492 563.228882,333.311859 
	C558.611694,325.371979 558.605469,317.469910 563.211365,309.159271 
	C566.634094,302.983490 569.401123,296.275452 571.328064,289.483307 
	C573.622375,281.396545 569.401062,272.823334 562.926880,270.016724 
	C558.357727,268.035950 555.301758,268.997223 552.920654,273.406738 
	C551.502808,276.032379 550.525391,278.899231 549.066833,281.498779 
	C547.139709,284.933533 544.279236,285.754669 540.579834,284.124542 
	C533.896240,281.179443 530.234131,272.495178 532.978455,265.761444 
	C533.104187,265.452942 533.329956,265.156738 533.358337,264.841278 
	C533.672974,261.343140 535.449402,256.846375 533.923340,254.560776 
	C531.201660,250.484528 525.891968,249.437057 520.840576,250.360291 
	C513.114929,251.772308 505.991821,258.911987 505.374847,266.698120 
	C505.141266,269.645721 506.554047,273.168457 508.270569,275.719696 
	C510.732574,279.378998 514.160339,282.388550 516.994690,285.478088 
	C505.893860,287.686646 496.599823,282.578888 492.780701,271.828339 
	C492.279694,270.418060 491.868774,268.961304 491.222839,267.619110 
	C483.259155,251.070099 489.501587,236.928497 498.875885,223.455750 
	C503.841644,216.318909 511.104828,215.107544 519.285400,216.222046 
	C526.021545,217.139755 532.837097,217.744171 539.631165,217.903595 
	C549.631104,218.138260 556.663025,211.847366 556.726013,201.755127 
	C556.762146,195.963715 554.963135,190.083435 553.454102,184.385132 
	C552.316467,180.089081 550.175415,176.069275 548.760742,171.833084 
	C547.362732,167.646408 548.525208,164.194885 551.909180,161.117599 
	C553.135620,160.002319 553.098328,157.497406 553.637695,155.626572 
	C551.844177,155.214355 549.893738,154.129181 548.283752,154.504395 
	C540.600952,156.294861 536.344238,161.884781 533.666992,168.926788 
	C528.885803,165.747299 527.293579,160.376007 529.615662,154.013382 
	C532.641907,145.721085 537.487183,138.565063 544.570984,133.197617 
	C551.517883,127.933868 558.999146,126.591393 567.558655,129.649506 
	C580.607605,134.311584 591.799866,130.525787 598.433289,119.833527 
	C599.492371,118.126442 599.865234,115.993660 600.867004,113.183594 
	C595.265259,113.183594 590.674011,113.533546 586.151855,113.122940 
	C566.698181,111.356537 563.106018,96.580727 566.342957,81.738052 
	C567.194885,77.831635 570.264038,75.441307 574.720764,75.150391 
	C574.792908,75.903374 574.969116,76.407997 574.864075,76.845093 
	C573.087769,84.241531 574.892761,90.334274 581.299255,94.790482 
	C587.774841,99.294807 594.584229,99.283936 601.022644,95.247688 
	C612.595459,87.992706 622.594788,79.005730 628.856995,66.558556 
	C638.257935,47.872791 660.570068,37.946400 681.428040,41.384842 
	C691.931335,43.116318 702.996338,41.903076 713.775574,41.374027 
	C725.672607,40.790119 737.560608,37.357925 749.418091,40.966015 
	C753.570435,42.229534 757.490845,44.485996 761.259155,46.723640 
	C766.111328,49.604942 770.734436,52.878613 775.402466,56.062172 
	C787.218689,64.120811 795.663147,75.366608 803.239624,87.105217 
	C810.592896,98.497932 820.424316,106.871056 831.501404,114.166321 
	C834.836304,116.362701 838.189819,118.564384 841.308228,121.048157 
	C845.934326,124.732811 846.089905,128.914917 842.071472,133.373688 
	C837.462036,138.488235 836.915039,144.070908 841.523376,149.576645 
	C844.112915,152.670303 843.710083,155.126907 842.309692,158.149033 
	C840.949951,161.083206 839.651001,164.045563 838.268250,167.122787 
	C845.761108,168.892960 845.486694,168.908264 845.913269,176.554672 
	C846.141235,180.641617 847.401550,184.690796 848.382446,188.711533 
	C850.101013,195.755219 849.040283,196.806107 843.472595,200.986404 
	C829.517578,211.463974 813.193237,216.819412 797.450745,223.481003 
	C788.717407,227.176590 782.225586,232.962326 776.042053,240.523346 
	C767.852234,250.537567 756.777039,258.167389 747.125183,267.021759 
	C742.785156,271.003204 738.446289,275.136322 734.932129,279.819855 
	C732.140076,283.541138 733.516296,285.957764 737.957581,287.752960 
	C747.796082,291.729828 757.617737,295.748596 767.683044,299.846680 
	C761.080566,303.936279 754.419922,306.915344 749.193909,311.521973 
	C735.532532,323.564148 722.964844,336.830078 714.990173,353.453339 
	C701.397400,381.787781 688.362244,410.389679 675.092529,438.879120 
	C659.497375,472.361145 644.345581,506.058838 628.189270,539.267883 
	C609.840210,576.984253 593.065979,615.363892 576.404419,653.842102 
	C557.720947,696.989990 537.376892,739.420471 517.646179,782.112671 
	C491.531128,838.618774 462.974335,893.897217 431.446442,947.545410 
	C418.749786,969.150208 402.609161,988.705139 389.331818,1010.000977 
	C371.167877,1039.134399 346.474487,1062.270996 321.826172,1085.299438 
	C298.738007,1106.870483 274.465790,1127.273438 247.833694,1144.553589 
	C238.271774,1150.757690 228.298737,1156.003540 216.422974,1156.094604 
	C211.108490,1156.135254 206.394012,1154.552002 203.005554,1150.569824 
	C198.821777,1145.652954 194.495544,1140.655762 191.403183,1135.046997 
	C178.266113,1111.219971 172.949509,1085.586426 175.604324,1058.487671 
	C181.553635,997.760742 199.802261,940.346924 223.784607,884.661865 
	C241.019165,844.644653 259.761810,805.305969 282.719818,767.723511 
z"/>
<path fill="#D7BDFF" opacity="1.000000" stroke="none" 
	d="
M881.827332,1017.843079 
	C886.435120,1011.570374 891.292725,1005.464172 895.604919,998.994385 
	C909.825195,977.659241 918.938477,954.303589 922.002747,928.795349 
	C923.148254,919.259521 923.335144,909.609863 924.007385,900.015442 
	C924.551636,892.248535 925.486816,884.492310 925.625977,876.720276 
	C925.701660,872.490479 924.518860,868.231079 923.831238,863.996826 
	C923.308472,860.777344 922.069092,857.551392 922.201843,854.372253 
	C922.553528,845.951782 919.464355,839.139954 913.794800,833.217590 
	C908.450500,827.634949 901.828857,822.984131 900.488770,814.477966 
	C900.318115,813.394592 898.844360,812.435486 897.839111,811.577148 
	C886.881836,802.220947 878.954285,790.499695 872.591553,777.812683 
	C869.670410,771.988342 867.164734,765.374512 866.865723,759.006287 
	C866.640564,754.212158 869.819763,749.029968 872.192200,744.382202 
	C881.713867,725.728821 891.501221,707.210999 901.211182,688.653992 
	C906.843628,677.889648 912.997192,667.367493 918.068726,656.346436 
	C928.214355,634.298523 938.193848,612.154541 947.455627,589.725525 
	C955.570557,570.073669 962.568298,549.967407 966.550415,528.962097 
	C967.567993,523.594177 968.740051,518.254395 969.923950,512.920044 
	C970.170410,511.809296 970.489380,510.194489 971.271667,509.802032 
	C980.834229,505.005096 981.246948,495.546539 982.995300,486.878662 
	C984.553772,479.152618 985.643066,471.331970 986.981079,463.303009 
	C988.215271,463.991516 989.712708,464.933929 991.298401,465.691925 
	C996.503235,468.179932 1001.726135,465.800842 1001.755676,460.109436 
	C1001.785950,454.275909 1001.449463,447.870056 999.095276,442.708160 
	C993.424011,430.273315 986.228149,418.688538 973.420349,411.924652 
	C962.823914,406.328583 951.587036,402.489044 939.698242,402.179077 
	C919.729858,401.658478 899.862427,402.724762 880.582275,409.139099 
	C868.060120,413.305145 858.349792,421.547028 848.165894,429.309998 
	C833.407288,440.560272 818.403076,451.488373 803.503662,462.553925 
	C802.987610,462.159546 802.471619,461.765198 801.955566,461.370850 
	C801.955566,454.816010 802.756714,448.139954 801.787048,441.731842 
	C799.834229,428.826202 803.718811,417.100067 807.410583,405.196838 
	C809.574402,398.219910 812.065247,391.264282 813.340088,384.108643 
	C815.925049,369.599915 818.775330,355.022919 819.679504,340.360809 
	C820.710388,323.645020 814.382080,308.818542 801.711914,297.694489 
	C797.359436,293.873108 791.037048,291.956970 785.307922,290.134064 
	C779.175293,288.182739 772.702515,287.248444 766.335571,286.108002 
	C763.245483,285.554474 762.692932,284.180969 763.293091,281.252960 
	C767.865234,258.948090 781.624084,244.191757 801.437988,234.299500 
	C813.357422,228.348602 825.234558,222.312866 837.171692,216.398071 
	C838.930115,215.526794 840.898254,215.053284 842.799805,214.500732 
	C852.683716,211.628616 857.971313,204.687927 858.038879,194.459183 
	C858.044983,193.527618 858.141113,192.596664 858.242676,190.854568 
	C863.966919,194.066498 869.233948,196.821396 874.304260,199.900208 
	C902.536499,217.043381 928.754456,236.824295 953.034546,259.263397 
	C990.501404,293.889282 1021.490356,333.536987 1046.551758,377.908752 
	C1068.588501,416.925385 1085.200073,458.147369 1095.146118,501.808838 
	C1099.913940,522.738586 1103.234497,544.077209 1105.824951,565.398987 
	C1107.943359,582.834412 1108.890381,600.523376 1108.810913,618.093018 
	C1108.600708,664.628479 1101.513794,710.220337 1087.968628,754.792786 
	C1072.806885,804.685059 1050.291138,850.968262 1020.208435,893.553894 
	C1000.613098,921.293518 977.335144,945.644653 951.810974,967.970825 
	C932.221863,985.105591 911.493225,1000.654175 889.413330,1014.412231 
	C887.299866,1015.729065 885.086853,1016.886108 882.473999,1018.076904 
	C882.027832,1018.036438 881.827332,1017.843079 881.827332,1017.843079 
z"/>
<path fill="#FFFEFF" opacity="1.000000" stroke="none" 
	d="
M990.821838,450.190582 
	C987.769897,446.836243 984.337463,443.747192 981.765808,440.058044 
	C978.794067,435.794861 975.304260,433.986908 970.296631,435.356903 
	C965.680786,436.619751 963.771423,441.250854 967.478333,443.896393 
	C976.209412,450.127533 975.855225,458.396698 975.037537,467.438446 
	C974.592529,472.358887 975.635193,477.396606 975.541321,482.372650 
	C975.486755,485.269745 974.512024,488.149475 973.951355,491.036987 
	C973.245361,491.037994 972.539368,491.039001 971.833374,491.040009 
	C971.226562,488.785736 970.618225,486.531891 970.013000,484.277222 
	C967.265503,474.042511 965.010315,463.640472 961.606934,453.628723 
	C959.155823,446.418304 953.807678,444.558746 947.259399,448.434967 
	C938.089661,453.862976 929.640076,453.917511 920.585876,448.273285 
	C913.985718,444.158905 906.869141,445.019806 900.910217,449.721649 
	C881.605652,464.953857 862.117371,479.638794 850.617737,502.814819 
	C838.582764,527.069519 823.857483,549.973450 811.117981,573.899048 
	C800.222656,594.360962 784.900696,610.681519 767.062988,624.935730 
	C760.578857,630.117249 753.704529,634.819824 746.905701,639.594910 
	C742.479431,642.703674 738.355347,641.922363 735.180420,637.636719 
	C732.820740,634.451538 730.508057,631.144226 728.774719,627.597900 
	C722.427673,614.612488 715.592957,601.794922 710.315552,588.374023 
	C702.505188,568.511597 699.059692,547.898682 706.412415,526.996765 
	C712.697571,509.129364 715.927063,490.896545 717.455444,471.971466 
	C718.729980,456.189362 723.892883,440.760345 726.170105,425.006744 
	C727.752930,414.056549 727.568237,402.823761 727.704834,391.711487 
	C727.737000,389.093933 726.281555,386.178864 724.736267,383.933441 
	C723.905701,382.726654 721.431396,382.651093 719.698792,382.065094 
	C719.443237,383.646423 718.668152,385.359039 719.028320,386.784790 
	C720.163147,391.276550 722.140503,395.577698 723.041565,400.102051 
	C725.702148,413.460571 720.882935,426.045074 718.720276,438.940826 
	C715.451721,458.431335 713.143005,478.084015 709.798279,497.559937 
	C708.119141,507.337036 705.361328,516.966919 702.544250,526.501831 
	C698.139221,541.411011 698.213135,556.250488 701.308472,571.379517 
	C704.673279,587.826050 710.385925,603.264038 718.305847,618.061584 
	C721.726013,624.451721 723.182007,631.868835 726.341309,638.428833 
	C731.186829,648.490356 742.006775,651.103821 751.187744,644.799377 
	C755.571594,641.789062 759.867432,638.581299 763.840820,635.054688 
	C779.627747,621.042969 796.706482,608.242493 807.175781,589.176758 
	C816.708374,571.817017 826.085876,554.362732 836.051025,537.252563 
	C846.172729,519.873596 856.753967,502.753052 867.537964,485.776001 
	C870.061951,481.802490 874.002808,478.614532 877.662781,475.501251 
	C885.009644,469.251648 892.601624,463.289551 900.112732,457.233917 
	C906.269714,452.269928 913.025085,450.859375 920.026306,455.013672 
	C929.562988,460.672363 938.683411,460.763031 948.187744,454.848816 
	C953.575867,451.496002 954.826477,452.263672 957.471069,458.241089 
	C962.265198,469.076996 963.324402,480.629761 961.822083,492.040222 
	C959.354919,510.778534 956.546875,529.553528 952.351990,547.964355 
	C945.428955,578.348572 931.994263,606.320312 917.662598,633.803406 
	C901.348267,665.088379 884.819092,696.261658 868.295898,727.437134 
	C864.408569,734.771545 860.113708,741.888855 856.109863,749.163025 
	C852.168823,756.322937 852.433594,762.848389 857.092285,770.147278 
	C862.509033,778.633850 866.439331,788.088379 870.801147,797.224792 
	C878.615417,813.592957 891.152710,826.306396 903.103027,839.492310 
	C906.651978,843.408142 910.101501,847.414185 914.354492,852.238586 
	C911.763367,852.775146 910.261414,853.163940 908.735168,853.387329 
	C904.484070,854.009521 903.846008,856.692200 905.583679,859.850281 
	C907.495483,863.324951 910.214478,866.347839 912.251465,869.764526 
	C913.168518,871.302856 914.133240,873.709351 913.533936,875.012756 
	C912.884216,876.425781 910.389709,877.862122 908.787231,877.769714 
	C906.106384,877.615112 903.485840,876.281982 900.856506,875.395752 
	C896.647461,873.977051 892.549988,871.965698 888.229004,871.199097 
	C880.808289,869.882385 874.103638,867.425598 868.725586,862.037720 
	C860.370667,853.667480 852.629639,844.579529 843.601624,837.022583 
	C837.524475,831.935608 830.026184,827.981812 822.526123,825.312134 
	C814.430176,822.430359 807.764709,818.484192 801.754211,812.311157 
	C795.408936,805.794373 788.115112,800.118774 780.811584,794.641174 
	C773.761902,789.353821 771.582886,781.838501 777.678345,775.747742 
	C794.070984,759.367920 803.740601,738.986511 813.614014,718.611633 
	C825.057495,694.996643 839.593933,673.236450 854.789551,651.959778 
	C876.640686,621.364075 890.811951,587.759766 897.068359,550.670532 
	C898.552551,541.872192 900.969055,533.070618 904.264954,524.791260 
	C906.723755,518.614868 911.341736,513.309448 914.885132,507.546661 
	C915.958191,505.801453 916.653870,503.824158 917.522339,501.953186 
	C916.982361,501.516266 916.442322,501.079376 915.902344,500.642456 
	C914.481934,501.668945 912.834900,502.488098 911.676697,503.754395 
	C901.505493,514.875244 897.770203,528.984436 894.127502,542.985291 
	C890.532166,556.804016 888.032959,570.908630 884.413269,584.720154 
	C878.713745,606.467651 867.143433,625.455017 854.525635,643.675720 
	C833.633850,673.844482 814.734802,705.077698 798.812439,738.195618 
	C783.087219,770.903442 754.743469,786.115723 720.336243,792.112976 
	C697.826843,796.036255 676.252441,793.367981 655.997070,782.607361 
	C650.465393,779.668579 645.699158,775.321960 640.319092,772.053711 
	C636.403259,769.675110 632.120117,767.856323 627.888611,766.050720 
	C615.698608,760.849304 602.718140,757.026062 591.404541,750.359619 
	C575.665405,741.085327 565.160522,727.461304 563.706238,707.903442 
	C562.981323,698.154053 564.586182,689.724548 568.682373,680.843994 
	C579.119995,658.215027 588.103333,634.917175 598.460571,612.248840 
	C610.906860,585.008301 623.624756,557.863342 637.206543,531.176514 
	C660.032104,486.326721 679.162292,439.853607 698.767944,393.593140 
	C706.790588,374.663147 717.911621,357.766785 730.197083,341.626617 
	C736.879272,332.847748 744.764099,324.671356 753.333069,317.739532 
	C760.292419,312.109894 768.673462,307.471649 777.177979,304.747101 
	C784.750488,302.321045 792.791138,305.866547 798.659058,311.319977 
	C806.577454,318.678986 811.247131,327.892487 811.189331,339.157745 
	C811.090454,358.423859 805.962219,376.673676 799.403320,394.450500 
	C795.022156,406.324554 791.751953,418.162292 792.016418,430.841400 
	C792.468201,452.507263 792.710815,474.216339 786.684326,495.268890 
	C780.467529,516.985962 773.374084,538.451050 767.017090,560.129822 
	C764.881165,567.413696 763.750977,575.000916 762.356750,582.485840 
	C762.123779,583.736389 762.894287,585.173767 763.201111,586.524841 
	C763.678589,586.600769 764.156067,586.676758 764.633606,586.752747 
	C765.335022,584.890137 766.958374,582.815796 766.587158,581.199585 
	C764.299500,571.240662 768.541077,562.416504 771.434448,553.564392 
	C775.716858,540.462524 781.299622,527.791809 785.931641,514.795959 
	C788.603516,507.299377 790.303589,499.460663 792.828247,491.905304 
	C793.876709,488.767456 795.346313,485.368530 797.635742,483.116241 
	C807.978577,472.941132 819.095032,463.795898 831.941956,456.689911 
	C840.052795,452.203613 847.257812,446.095642 854.951599,440.835632 
	C864.427856,434.356964 873.748779,427.594421 883.622620,421.779419 
	C888.142090,419.117737 893.731018,417.595398 898.995544,417.016052 
	C909.997131,415.805328 921.257202,417.016998 931.770081,412.006500 
	C934.796875,410.563904 938.570068,410.437592 942.033813,410.213196 
	C949.301941,409.742340 953.901794,413.308563 954.815796,420.605347 
	C955.319275,424.624939 957.176819,426.160736 960.832031,426.384979 
	C961.825928,426.445953 962.841675,426.795563 963.801636,426.668213 
	C974.972717,425.186218 981.732666,430.860992 986.312134,440.292419 
	C987.763672,443.281799 989.517883,446.124207 991.091003,449.495300 
	C991.048401,449.956726 990.821838,450.190582 990.821838,450.190582 
z"/>
<path fill="#FFFFFF" opacity="1.000000" stroke="none" 
	d="
M350.756470,495.751282 
	C381.354736,469.501892 411.573090,443.353149 442.045624,417.503967 
	C468.968140,394.666168 496.172211,372.160187 523.255920,349.512482 
	C530.665771,343.316284 538.064331,337.106140 545.523682,330.969910 
	C547.684753,329.192108 550.038940,327.648987 552.951050,325.527252 
	C554.970215,338.667572 563.836243,345.277649 574.028748,350.911011 
	C584.830139,356.880829 595.515808,356.909607 606.359131,350.451111 
	C606.560913,350.873047 606.762695,351.294983 606.964478,351.716919 
	C603.723633,355.740082 600.389404,359.692017 597.257324,363.798126 
	C579.286560,387.357574 561.785034,411.291107 543.264038,434.408478 
	C532.457947,447.896240 519.832520,459.909760 508.407227,472.921631 
	C489.841034,494.065979 471.665009,515.552429 453.171875,536.761536 
	C443.114563,548.295898 432.632355,559.459229 422.543304,570.966614 
	C411.680603,583.356445 400.879425,595.808472 390.361786,608.490784 
	C371.244293,631.542847 351.882080,654.417542 333.537292,678.075928 
	C321.021942,694.216370 309.579224,711.252502 298.525970,728.446777 
	C283.972046,751.086670 269.945404,774.084167 256.341492,797.308289 
	C249.639984,808.748779 244.515717,821.105103 238.406128,832.906494 
	C237.017868,835.588013 234.901901,838.261536 232.445251,839.963623 
	C210.833191,854.937317 189.422302,870.249634 167.219864,884.305420 
	C153.199692,893.181152 138.370438,901.120422 123.107414,907.604309 
	C104.362984,915.567200 84.678993,921.407776 63.987267,914.913818 
	C56.244495,912.483765 48.659580,909.292725 41.395325,905.662903 
	C32.782387,901.359253 28.538624,894.331787 27.671778,884.180908 
	C25.758480,861.776123 32.549271,841.107300 38.337513,820.121033 
	C49.252705,780.546082 71.293900,747.451538 97.058197,716.151611 
	C116.980179,691.949280 140.176773,671.134888 163.167465,650.236328 
	C197.041702,619.444519 232.123154,589.952637 267.268280,560.598999 
	C284.751495,545.996704 303.596680,533.033020 321.676849,519.134460 
	C331.442169,511.627655 340.893921,503.712891 350.756470,495.751282 
z"/>
<path fill="#D7BCFE" opacity="1.000000" stroke="none" 
	d="
M479.076263,247.060150 
	C478.486328,256.892334 479.447784,266.327911 485.689148,274.541229 
	C493.481964,284.796173 503.603027,290.769318 516.615662,290.822815 
	C519.776184,290.835785 523.017151,289.316956 526.061584,288.102509 
	C526.931702,287.755402 527.629211,286.011871 527.652649,284.892883 
	C527.665283,284.290161 526.169067,283.377441 525.206299,283.077362 
	C518.382751,280.950623 513.007812,274.963959 513.202759,268.301117 
	C513.278320,265.720123 514.887817,262.148010 516.928650,260.945831 
	C519.058411,259.691193 522.628174,260.393799 525.396179,261.011963 
	C526.208496,261.193359 526.963013,264.044067 526.838806,265.599091 
	C526.242554,273.067963 528.169250,279.976654 532.180603,286.000397 
	C534.233276,289.082947 537.705078,291.653961 541.096375,293.302338 
	C545.377075,295.382996 549.208862,293.448578 551.763489,289.457153 
	C552.656616,288.061676 553.289551,286.500183 554.047913,285.017914 
	C555.667297,281.852661 557.968811,280.029633 561.705994,281.328522 
	C565.520691,282.654358 567.405518,285.958466 565.879822,289.200745 
	C562.395386,296.605652 559.333008,304.914734 553.745850,310.504242 
	C527.580994,336.680145 497.125549,357.818848 468.560303,381.192200 
	C457.879089,389.932098 447.649750,399.224030 437.205963,408.254517 
	C436.741791,408.655914 436.193878,408.960419 434.924164,409.832764 
	C430.155212,349.947845 444.814056,296.098846 478.672211,247.121841 
	C479.011169,247.007126 479.076263,247.060150 479.076263,247.060150 
z"/>
<path fill="#FEFCFE" opacity="1.000000" stroke="none" 
	d="
M617.277588,284.583740 
	C617.969177,283.460175 618.510132,282.666107 619.051086,281.872070 
	C619.589233,282.018066 620.127441,282.164032 620.665588,282.310028 
	C619.434326,287.197998 618.555664,292.209930 616.890320,296.945251 
	C614.299500,304.312012 612.455505,311.622406 615.176575,319.298828 
	C615.946167,321.470001 616.750916,323.900299 618.294006,325.470123 
	C621.700378,328.935455 621.085571,331.989014 618.570129,335.498322 
	C615.583130,339.665527 612.832458,344.002136 610.487305,347.506348 
	C608.181885,345.225861 606.219849,343.012146 603.982056,341.125580 
	C598.563110,336.557220 592.374817,332.719757 587.679810,327.519501 
	C581.621521,320.809235 586.033997,309.440338 595.015625,308.418182 
	C603.962891,307.399902 608.379822,301.168579 612.868469,294.958313 
	C614.945190,292.085022 615.747070,288.290283 617.277588,284.583740 
z"/>
<path fill="#D7BBFD" opacity="1.000000" stroke="none" 
	d="
M547.754211,199.147659 
	C544.516357,208.866669 536.704041,210.573883 528.483521,210.569183 
	C523.160767,210.566132 517.838806,209.084763 510.927673,208.021362 
	C522.917480,198.502457 533.961792,189.734207 545.006104,180.965958 
	C545.627686,181.199295 546.249268,181.432632 546.870850,181.665985 
	C547.204468,187.359970 547.538025,193.053955 547.754211,199.147659 
z"/>
<path fill="#D7BCFE" opacity="1.000000" stroke="none" 
	d="
M478.980194,246.978760 
	C479.073975,246.505661 479.198761,246.060944 479.323547,245.616226 
	C479.434845,245.634628 479.546143,245.653030 479.657471,245.671432 
	C479.611969,246.063309 479.566467,246.455185 479.298645,246.953613 
	C479.076263,247.060150 479.011169,247.007126 478.980194,246.978760 
z"/>
<path fill="#FFFEFF" opacity="1.000000" stroke="none" 
	d="
M991.162842,449.840942 
	C991.455200,449.954376 991.633179,450.183594 991.811157,450.412781 
	C991.559692,450.468842 991.308228,450.524902 990.939331,450.385773 
	C990.821838,450.190582 991.048401,449.956726 991.162842,449.840942 
z"/>
<path fill="#D7BDFF" opacity="1.000000" stroke="none" 
	d="
M882.125122,1018.136047 
	C882.012329,1018.398987 881.802307,1018.562256 881.592285,1018.725586 
	C881.553650,1018.505554 881.514893,1018.285522 881.651733,1017.954224 
	C881.827332,1017.843079 882.027832,1018.036438 882.125122,1018.136047 
z"/>
</svg>